<?xml version="1.0" encoding="utf-8"?>
<!-- Generator: Adobe Illustrator 19.2.1, SVG Export Plug-In . SVG Version: 6.00 Build 0)  -->
<svg version="1.1" id="Layer_1" xmlns="http://www.w3.org/2000/svg" xmlns:xlink="http://www.w3.org/1999/xlink" x="0px" y="0px"
	 viewBox="0 0 48 48" style="enable-background:new 0 0 48 48;" xml:space="preserve">
<style type="text/css">
	.st0{fill:url(#SVGID_1_);}
	.st1{fill:url(#SVGID_2_);}
</style>
<g>
	<linearGradient id="SVGID_1_" gradientUnits="userSpaceOnUse" x1="7.6592" y1="40.3412" x2="32.9512" y2="15.0492">
		<stop  offset="0" style="stop-color:#FF667E"/>
		<stop  offset="1" style="stop-color:#FF943B"/>
	</linearGradient>
	<path class="st0" d="M24,0C10.7,0,0,10.7,0,24c0,13.3,10.7,24,24,24s24-10.7,24-24C48,10.7,37.3,0,24,0z M24,43.8
		c-11,0-20-8.9-20-20s8.9-20,20-20c11,0,20,8.9,20,20S35.1,43.8,24,43.8z"/>
	<linearGradient id="SVGID_2_" gradientUnits="userSpaceOnUse" x1="7.6578" y1="40.3397" x2="32.9497" y2="15.0477">
		<stop  offset="0" style="stop-color:#FF667E"/>
		<stop  offset="1" style="stop-color:#FF943B"/>
	</linearGradient>
	<path class="st1" d="M32.6,21.9h-6.5l0-6.6c0-0.5-0.2-1.4-1.3-1.4l-1.6,0c-1.2,0-1.3,1.2-1.3,1.5l0,6.5h-6.6
		c-1.2,0-1.3,0.9-1.3,1.2v1.8c0,0.2,0.1,1.2,1.3,1.2h6.6l0,6.6c0,1.2,0.9,1.3,1.2,1.3l1.8,0c0.2,0,1.2-0.1,1.2-1.3l0-6.6h6.6
		c0.5,0,1.4-0.2,1.4-1.3v-1.6C34,22,32.9,21.9,32.6,21.9z"/>
</g>
</svg>
